# xmcd
# 
# Track frame offsets:
#     150
#     13345
#     26010
#     38822
#     52960
#     67780
#     79480
#     90760
#     100735
#     110585
#     120635
#     131460
#     142310
#     153055
#     162835
#     174685
# 
# Disc length: 2499
# 
# Revision: 2
# Processed by: cddbd v1.5.2PL0 Copyright (c) Steve Scherf et al.
# Submitted via: fre:ac v1.0.17
# 
DISCID=ca09c110
DTITLE=Various Artist - Even Cowgirls Get The Blues
DYEAR=0
DGENRE=Country
TTITLE0=Lynn Anderson - Even Cowgirls Get The Blues
TTITLE1=Dave Dudley - Let Me Dream
TTITLE2=Merle Haggard and The Strangers - The Fightin' Side Of Me
TTITLE3=Conway Twitty - You've Never Been This Far Before
TTITLE4=Billie Jo Spears - Midnight Love
TTITLE5=Johnny Paycheck - Me And The IRS
TTITLE6=Stonewall Jackson - Full Moon, Empty Pockets
TTITLE7=Vern Gosdin - Damn The Fever
TTITLE8=Kitty Wells - Release Me
TTITLE9=Johnny Cash and The Tennessee Two - There You Go
TTITLE10=Dolly Parton - (It Wasn't God Who Made) Honky Tonk Angels
TTITLE11=Roger Miller - Everything's Coming Up Roses
TTITLE12=Ferlin Husky - Divorce Lawyers, Funeral Directors And Jailers
TTITLE13=The Dillards - Never See My Home Again
TTITLE14=Jean Shepard - Slippin' Away
TTITLE15=Glen Campbell - Galveston
EXTD=Country   THE BEST OF  CD1
EXTT0=
EXTT1=
EXTT2=
EXTT3=
EXTT4=
EXTT5=
EXTT6=
EXTT7=
EXTT8=
EXTT9=
EXTT10=
EXTT11=
EXTT12=
EXTT13=
EXTT14=
EXTT15=
PLAYORDER=
